<?xml version="1.0" encoding="utf-8"?>
<!-- Generator: Adobe Illustrator 27.5.0, SVG Export Plug-In . SVG Version: 6.00 Build 0)  -->
<svg version="1.1" id="Layer_1" xmlns="http://www.w3.org/2000/svg" xmlns:xlink="http://www.w3.org/1999/xlink" x="0px" y="0px"
	 width="350px" height="350px" viewBox="0 0 350 350" style="enable-background:new 0 0 350 350;" xml:space="preserve">
<style type="text/css">
	.st0{fill:none;}
	.st1{fill-rule:evenodd;clip-rule:evenodd;fill:#FFF3EB;}
	.st2{fill-rule:evenodd;clip-rule:evenodd;fill:#FC7E2A;}
	.st3{fill-rule:evenodd;clip-rule:evenodd;fill:#E37125;}
	.st4{fill-rule:evenodd;clip-rule:evenodd;fill:#1C2D34;}
	.st5{fill-rule:evenodd;clip-rule:evenodd;fill:#F5C7A9;}
	.st6{fill-rule:evenodd;clip-rule:evenodd;fill:#FDC5C1;}
	.st7{fill-rule:evenodd;clip-rule:evenodd;fill:#FDFDFD;}
	.st8{fill-rule:evenodd;clip-rule:evenodd;fill:#D1ADB3;}
	.st9{fill:none;stroke:#FC7E2A;stroke-width:0.1199;stroke-miterlimit:10;}
</style>
<g id="Layer_x0020_1">
	<rect class="st0" width="350" height="350"/>
	<path class="st1" d="M45.6,117.3c21,27.9,5.4,48.1-1,69.1s18.5,91.1,92.5,68.1c74-23.1,66.1-20.2,88.6,1c22.5,21,46.1,19,60.7-9.8
		c14.8-28.9,24.4-20,19.2-54.8c-5.4-34.8-18.2-67.6-7.9-78.4c10.2-10.7,16.1-35.3-1.5-48.9c-18.2-14.3-33.8-72.7-79.4-28.4
		c-17.6,17.1-74.3,16.1-81.7,6.4C95.5-11.5,27.1,92.7,45.6,117.3z"/>
	<path class="st2" d="M45.8,312.6v-16.2h-6.1v-2.1h14.4v2.1h-6.1v16.2H45.8z M56.3,312.6v-18.4h2.3v6.6c1-1.1,2.3-1.8,3.9-1.8
		c1,0,1.8,0.2,2.6,0.7c0.7,0.3,1.1,0.8,1.5,1.5c0.3,0.8,0.5,1.8,0.5,3.1v8.4h-2.3v-8.4c0-1.1-0.2-2-0.7-2.5s-1.1-0.8-2.1-0.8
		c-0.7,0-1.3,0.2-1.8,0.5c-0.7,0.3-1,0.8-1.3,1.5c-0.2,0.5-0.3,1.3-0.3,2.5v7.2H56.3z M79.6,308.2l2.3,0.3c-0.3,1.5-1,2.5-2,3.1
		c-1,0.8-2.3,1.1-3.8,1.1c-2,0-3.4-0.5-4.6-1.8c-1.1-1.1-1.8-2.8-1.8-4.9c0-2.3,0.7-3.9,1.8-5.3c1.1-1.1,2.6-1.8,4.4-1.8
		s3.1,0.7,4.3,1.8c1.1,1.3,1.6,3,1.6,5.1c0,0.2,0,0.3,0,0.7H72c0.2,1.5,0.5,2.5,1.3,3.3c0.7,0.8,1.6,1.1,2.8,1.1
		c0.8,0,1.5-0.2,2-0.7C78.8,309.8,79.3,309.1,79.6,308.2z M72.2,304.7h7.4c-0.2-1.1-0.3-2-0.8-2.6c-0.7-0.8-1.6-1.3-2.8-1.3
		c-1,0-2,0.3-2.6,1.1C72.7,302.6,72.4,303.4,72.2,304.7z M84.7,312.6v-13.3h2v2c0.5-0.8,1-1.5,1.5-1.8c0.5-0.3,1-0.5,1.5-0.5
		c0.7,0,1.5,0.3,2.3,0.8l-0.8,2c-0.5-0.3-1.1-0.5-1.6-0.5c-0.5,0-1,0.2-1.3,0.5c-0.3,0.3-0.7,0.7-0.8,1.1c-0.2,0.8-0.3,1.8-0.3,2.6
		v7.1H84.7z M102.2,308.2l2.3,0.3c-0.3,1.5-1,2.5-2,3.1c-1,0.8-2.3,1.1-3.8,1.1c-2,0-3.4-0.5-4.6-1.8c-1.1-1.1-1.8-2.8-1.8-4.9
		c0-2.3,0.7-3.9,1.8-5.3c1.1-1.1,2.6-1.8,4.4-1.8s3.3,0.7,4.3,1.8c1.1,1.3,1.8,3,1.8,5.1c0,0.2,0,0.3,0,0.7h-10
		c0.2,1.5,0.5,2.5,1.3,3.3c0.7,0.8,1.6,1.1,2.8,1.1c0.8,0,1.5-0.2,2.1-0.7C101.4,309.8,101.9,309.1,102.2,308.2z M94.8,304.7h7.4
		c0-1.1-0.3-2-0.8-2.6c-0.7-0.8-1.6-1.3-2.8-1.3c-1,0-1.8,0.3-2.6,1.1C95.3,302.6,95,303.4,94.8,304.7z M123.1,310.8
		c-0.8,0.8-1.6,1.3-2.3,1.6c-0.8,0.2-1.6,0.3-2.6,0.3c-1.3,0-2.5-0.3-3.3-1c-0.8-0.8-1.1-1.6-1.1-2.8c0-0.7,0.2-1.1,0.5-1.8
		c0.2-0.5,0.7-0.8,1.1-1.1c0.5-0.3,1-0.7,1.5-0.8c0.5-0.2,1.1-0.2,2.1-0.3c1.8-0.2,3.1-0.5,3.9-0.8c0-0.2,0-0.5,0-0.5
		c0-1-0.2-1.6-0.7-2c-0.5-0.5-1.3-0.7-2.5-0.7c-1.1,0-2,0.2-2.5,0.5c-0.5,0.3-0.8,1-1,2l-2.3-0.3c0.2-1,0.5-1.6,1-2.3
		c0.5-0.5,1.1-1,2-1.3c1-0.3,2-0.5,3.1-0.5c1.1,0,2,0.2,2.8,0.5c0.7,0.2,1.1,0.5,1.5,1c0.3,0.3,0.5,0.8,0.7,1.5
		c0.2,0.3,0.2,1.1,0.2,2.1v3c0,2,0,3.3,0.2,3.9c0,0.5,0.3,1,0.5,1.6h-2.3C123.2,312.1,123.2,311.4,123.1,310.8z M122.9,305.9
		c-0.8,0.3-2,0.7-3.6,0.8c-1,0.2-1.6,0.3-2,0.5c-0.5,0.2-0.7,0.3-1,0.7c-0.2,0.3-0.3,0.7-0.3,1.1c0,0.5,0.3,1.1,0.8,1.5
		c0.3,0.3,1,0.7,2,0.7c0.8,0,1.6-0.3,2.3-0.7c0.7-0.3,1.1-0.8,1.5-1.5c0.2-0.5,0.3-1.3,0.3-2.3V305.9z M128.6,312.6v-13.3h2v2
		c0.5-0.8,1-1.5,1.5-1.8c0.3-0.3,0.8-0.5,1.5-0.5c0.7,0,1.5,0.3,2.3,0.8l-0.8,2c-0.7-0.3-1.1-0.5-1.6-0.5s-1,0.2-1.3,0.5
		c-0.5,0.3-0.7,0.7-0.8,1.1c-0.3,0.8-0.5,1.8-0.5,2.6v7.1H128.6z M146.2,308.2l2.3,0.3c-0.3,1.5-1,2.5-2,3.1c-1,0.8-2.3,1.1-3.9,1.1
		c-1.8,0-3.4-0.5-4.4-1.8c-1.1-1.1-1.8-2.8-1.8-4.9c0-2.3,0.7-3.9,1.8-5.3c1.1-1.1,2.6-1.8,4.4-1.8c1.6,0,3.1,0.7,4.3,1.8
		c1.1,1.3,1.6,3,1.6,5.1c0,0.2,0,0.3,0,0.7h-9.8c0.2,1.5,0.5,2.5,1.3,3.3c0.7,0.8,1.6,1.1,2.6,1.1c0.8,0,1.6-0.2,2.1-0.7
		C145.4,309.8,145.9,309.1,146.2,308.2z M138.8,304.7h7.4c-0.2-1.1-0.3-2-0.8-2.6c-0.8-0.8-1.6-1.3-2.8-1.3c-1,0-2,0.3-2.6,1.1
		C139.3,302.6,138.8,303.4,138.8,304.7z M158.3,312.6v-13.3h2.1v1.8c0.8-1.3,2.3-2.1,4.1-2.1c0.8,0,1.5,0.2,2.3,0.5
		c0.7,0.3,1.1,0.7,1.5,1.1c0.3,0.5,0.5,1,0.7,1.6c0,0.3,0.2,1.1,0.2,2.1v8.2h-2.3v-8c0-1-0.2-1.6-0.3-2.1c-0.2-0.5-0.5-0.8-0.8-1.1
		c-0.5-0.2-1-0.3-1.6-0.3c-1,0-1.8,0.3-2.5,1c-0.7,0.5-1,1.6-1,3.4v7.2H158.3z M171.8,305.9c0-2.5,0.7-4.3,2-5.4
		c1.1-1,2.5-1.5,4.1-1.5c1.8,0,3.3,0.7,4.6,1.8c1.1,1.1,1.6,2.8,1.6,4.9c0,1.6-0.2,3.1-0.8,4.1c-0.5,0.8-1.1,1.6-2.1,2.1
		c-1,0.7-2.1,0.8-3.3,0.8c-1.8,0-3.3-0.5-4.4-1.8C172.3,309.8,171.8,308.2,171.8,305.9z M174.1,305.9c0,1.8,0.3,3,1,3.8
		c0.8,1,1.8,1.3,2.8,1.3c1.1,0,2.1-0.3,2.8-1.3c0.8-0.8,1.1-2.1,1.1-3.8s-0.3-3-1.1-3.8c-0.7-0.8-1.6-1.1-2.8-1.1
		c-1,0-2,0.3-2.8,1.1C174.4,302.9,174.1,304.2,174.1,305.9z M193,305.9c0-2.5,0.7-4.3,2.1-5.4c1.1-1,2.5-1.5,4.1-1.5
		c1.8,0,3.3,0.7,4.4,1.8s1.8,2.8,1.8,4.9c0,1.6-0.3,3.1-0.8,4.1c-0.5,0.8-1.3,1.6-2.3,2.1c-1,0.7-2,0.8-3.1,0.8
		c-1.8,0-3.3-0.5-4.4-1.8C193.6,309.8,193,308.2,193,305.9z M195.3,305.9c0,1.8,0.3,3,1.1,3.8c0.7,1,1.6,1.3,2.8,1.3s2-0.3,2.8-1.3
		c0.7-0.8,1.1-2.1,1.1-3.8s-0.5-3-1.1-3.8c-0.8-0.8-1.6-1.1-2.8-1.1s-2.1,0.3-2.8,1.1C195.6,302.9,195.3,304.2,195.3,305.9z
		 M208.1,312.6v-13.3h2v2c0.5-0.8,1-1.5,1.3-1.8c0.5-0.3,1-0.5,1.5-0.5c0.8,0,1.6,0.3,2.3,0.8l-0.8,2c-0.5-0.3-1-0.5-1.5-0.5
		s-1,0.2-1.3,0.5c-0.5,0.3-0.8,0.7-1,1.1c-0.2,0.8-0.3,1.8-0.3,2.6v7.1H208.1z M225,312.6v-1.8c-0.8,1.3-2,2-3.6,2c-1,0-2-0.3-3-0.8
		c-0.8-0.7-1.5-1.5-2-2.5c-0.5-1-0.8-2.1-0.8-3.6c0-1.3,0.3-2.5,0.7-3.6c0.5-1,1.1-1.8,2-2.5c1-0.5,2-0.8,3-0.8
		c0.8,0,1.5,0.2,2.1,0.5c0.7,0.3,1.1,0.8,1.6,1.3v-6.6h2.1v18.4H225z M217.9,305.9c0,1.8,0.3,3,1.1,3.8c0.7,1,1.5,1.3,2.5,1.3
		s1.8-0.3,2.5-1.1c0.8-0.8,1.1-2.1,1.1-3.8c0-1.8-0.3-3.1-1.1-3.9c-0.7-0.8-1.5-1.1-2.5-1.1s-2,0.3-2.6,1.1
		C218.2,302.9,217.9,304.2,217.9,305.9z M239.7,308.2l2.3,0.3c-0.3,1.5-1,2.5-2,3.1c-1,0.8-2.3,1.1-3.8,1.1c-2,0-3.4-0.5-4.6-1.8
		c-1.1-1.1-1.8-2.8-1.8-4.9c0-2.3,0.7-3.9,1.8-5.3c1.1-1.1,2.6-1.8,4.4-1.8c1.8,0,3.1,0.7,4.3,1.8c1.1,1.3,1.6,3,1.6,5.1
		c0,0.2,0,0.3,0,0.7h-9.8c0.2,1.5,0.5,2.5,1.3,3.3c0.7,0.8,1.6,1.1,2.8,1.1c0.8,0,1.5-0.2,2-0.7
		C238.9,309.8,239.4,309.1,239.7,308.2z M232.3,304.7h7.4c-0.2-1.1-0.3-2-0.8-2.6c-0.8-0.8-1.6-1.3-2.8-1.3c-1,0-2,0.3-2.6,1.1
		C232.8,302.6,232.5,303.4,232.3,304.7z M244.8,312.6v-13.3h2v2c0.5-0.8,1-1.5,1.5-1.8c0.5-0.3,1-0.5,1.5-0.5c0.7,0,1.5,0.3,2.3,0.8
		l-0.8,2c-0.5-0.3-1.1-0.5-1.6-0.5s-1,0.2-1.3,0.5c-0.3,0.3-0.7,0.7-0.8,1.1c-0.3,0.8-0.3,1.8-0.3,2.6v7.1H244.8z M252.5,308.5
		l2.1-0.3c0.2,1,0.5,1.6,1,2.1c0.7,0.5,1.5,0.7,2.5,0.7c1,0,1.8-0.2,2.3-0.7c0.5-0.3,0.8-0.8,0.8-1.5c0-0.5-0.3-0.8-0.8-1.1
		c-0.3-0.2-1-0.5-2.3-0.8c-1.6-0.3-2.6-0.7-3.3-1c-0.7-0.3-1.1-0.8-1.5-1.3c-0.3-0.5-0.5-1.1-0.5-1.8c0-0.5,0.2-1.1,0.3-1.6
		c0.3-0.5,0.7-0.8,1.1-1.1c0.3-0.3,0.8-0.5,1.5-0.7c0.5-0.2,1.1-0.3,1.8-0.3c1.1,0,2,0.2,2.8,0.5c0.8,0.3,1.3,0.7,1.8,1.1
		c0.3,0.5,0.7,1.3,0.7,2.1l-2.1,0.3c-0.2-0.7-0.3-1.3-0.8-1.6c-0.5-0.3-1.1-0.7-2.1-0.7s-1.6,0.2-2.1,0.5c-0.5,0.5-0.7,0.8-0.7,1.3
		c0,0.3,0.2,0.5,0.3,0.8c0.2,0.2,0.5,0.3,0.8,0.5c0.2,0.2,0.8,0.3,2,0.7c1.6,0.3,2.6,0.7,3.3,1c0.7,0.3,1.1,0.7,1.5,1.1
		c0.3,0.5,0.5,1.1,0.5,2c0,0.7-0.2,1.5-0.7,2.1c-0.3,0.7-1,1.1-1.8,1.5c-0.8,0.3-1.8,0.5-2.8,0.5c-1.6,0-3-0.3-3.9-1
		C253.4,310.9,252.7,310,252.5,308.5z M273,317.7l-0.2-2.1c0.5,0.2,0.8,0.2,1.1,0.2c0.7,0,1,0,1.3-0.2c0.3-0.2,0.5-0.5,0.7-0.8
		c0.2-0.2,0.5-0.7,0.7-1.6c0.2-0.2,0.2-0.3,0.3-0.5l-5.1-13.3h2.5l2.6,7.5c0.5,1,0.8,2.1,1,3.1c0.3-1,0.7-2,1-3l2.8-7.7h2.3
		l-5.1,13.5c-0.5,1.5-1,2.5-1.1,3c-0.5,0.8-1,1.3-1.5,1.6c-0.5,0.3-1.1,0.5-1.8,0.5C274,317.8,273.5,317.8,273,317.7z M294.9,308.2
		l2.5,0.3c-0.5,1.5-1.1,2.5-2.1,3.1c-1,0.8-2.1,1.1-3.8,1.1c-1.8,0-3.4-0.5-4.6-1.8c-1.1-1.1-1.6-2.8-1.6-4.9c0-2.3,0.5-3.9,1.6-5.3
		c1.1-1.1,2.6-1.8,4.6-1.8c1.6,0,3.1,0.7,4.3,1.8c1.1,1.3,1.6,3,1.6,5.1c0,0.2,0,0.3,0,0.7h-9.8c0,1.5,0.5,2.5,1.1,3.3
		c0.8,0.8,1.8,1.1,2.8,1.1c0.8,0,1.6-0.2,2.1-0.7C294.2,309.8,294.5,309.1,294.9,308.2z M287.6,304.7h7.4c-0.2-1.1-0.5-2-1-2.6
		c-0.7-0.8-1.5-1.3-2.6-1.3s-2,0.3-2.6,1.1C288.1,302.6,287.6,303.4,287.6,304.7z M305,310.5l0.2,2c-0.5,0.2-1.1,0.3-1.6,0.3
		c-0.8,0-1.5-0.2-1.8-0.5c-0.5-0.2-0.8-0.5-1-1c-0.2-0.3-0.3-1.3-0.3-2.6v-7.7h-1.6v-1.6h1.6V296l2.3-1.3v4.6h2.3v1.6h-2.3v7.9
		c0,0.7,0,1,0.2,1.1c0,0.2,0.2,0.3,0.3,0.5c0.2,0.2,0.5,0.2,0.8,0.2C304.2,310.6,304.5,310.6,305,310.5z M307.8,312.6V310h2.5v2.6
		H307.8z"/>
	<g id="_807423888">
		<path class="st3" d="M117.2,119.1l34.6,28.7l24.8-26.7l-35.4-29.7C141.1,91.4,117.2,119.5,117.2,119.1z"/>
		<path class="st2" d="M131.3,90.9l9.8,0.5l0.2,0.2L117,119.3l-10.2-1.1C106.8,118.1,131.3,91.1,131.3,90.9z"/>
		<path class="st2" d="M113.1,127.8l35,29.5l8.4-9.2l-4.4-0.7l-34.8-28.2C117.2,119.3,112.7,128.2,113.1,127.8z"/>
		<path class="st2" d="M186.4,121.3l-9.8-0.2l-24.8,26.4l10.8,1.3C162.6,148.8,186.2,121.3,186.4,121.3z"/>
		<path class="st2" d="M120.9,121.9l16.6-18.9l31.3,26.3l-17.4,18.2c0,0-12-10-21-17.6C125,125.5,120.8,121.9,120.9,121.9z"/>
		<path class="st3" d="M137.5,103.5l3.6-12.1L117,119.3l3.8,3C120.8,122.2,137.3,103.4,137.5,103.5z"/>
		<polygon class="st3" points="125.2,134.4 129,129 135.5,134.1 131.4,139.5 131.3,139.3 131.6,137.3 129.5,137.8 129.6,135.9 
			127.3,136 127,134.2 		"/>
		<path class="st4" d="M188.2,122.6c-1.5,15.4-3.3,32.3-2,47.7c1.1,14.3,3.4,31.7,5.9,45.6l7.5,0.3c0.2-17.2-2.5-52,0.5-67.1
			c0.8,4.4,1.5,9.2,2.5,13.6c0.7,3.3,3.3,10.5,3.3,13c1.1,1.3,2,4.1,2.1,6.1c1.1,1.5,4.4,11.5,5.3,14.1c1.8,4.8,3.6,9.8,5.7,14.6
			c1,0.5,2.1,0,3.6-0.5c0.7-0.2,1.1-0.2,1.8-0.3c1.8-0.5,1.1,0,2-1.3v-1.3c-1.5-2-6.1-19.2-6.2-20.7c-1-2-2.8-9.4-2.5-11.3
			c-2.3-4.1-3.1-20.5-3.8-26.1c-0.5-2.1-1.3-8.7-0.8-10.5c-1.1-2.8-1.3-10.5-1.5-14.1l-0.7-6.6l-22.3,3L188.2,122.6z"/>
		<path class="st5" d="M237.4,174.4h11.2v33.5h-11.2V174.4z M237.3,139.1h11.3v33.5h-11.2c0-5.7,0-11.3,0-17.1
			C237.4,151.1,237.9,142.8,237.3,139.1z M237.1,137.3c1.1-4.9,0.3-26.6,0.3-33.5h11.2v33.5H237.1z M237.6,68.6h11v33.5h-11.2
			L237.6,68.6z M208.6,81.2c-1.3-1.8-0.7-10.7-0.5-12.6H236l-0.2,33.8l-13-0.2c-0.5-3.9-0.2-9.8-0.2-13.9c0.2-5.7-0.2-5.1-6.4-7.2
			l-0.2-4.9h-6.4c0,0.7,0.2,2.1,0,2.6C209.5,80.9,208.7,80.9,208.6,81.2z M197.7,68.6h8.5v12.3c-0.7,0.5,0.2,0.2-1,0.2l1,1
			c0.2,0,0.2,0,0.3,0.2l3.6,2.5c2.1,1.8,2.3,2.5,3.6,4.4c-0.7,1-0.5,0.3-1.3,1.5c2.1,0.3,1.6,0.7,2.8,2.5c0.7,1,1.3,1.8,1.8,3.1
			c1.3,2.8,1.5,4.8,0.3,7.5H236v22.2c-2.5,0-7.9,0.7-9.4,0c-0.3-0.5-0.3-0.3,0.7-1.3c0.8-0.7,2.3-1.6,1.6-4.6
			c-0.8-2.6-4.8-2.8-5.7-3.1c-2.3-1.3-1.3-3.4-5.4-3.3c-3.1,0-3.8,0.8-5.3,2.6l0.2,6.9c1.1,0.7,0.2-0.2,1.1,1
			c0.7,0.8,0.7,0.2,0.8,1.5c-2.5,1.6-2.6-0.3-2.6-0.3l-0.3-0.8c0.2,3.6,0.3,11.3,1.5,14.1c1-1-0.2,0,1.3,0.3l21.3,0.2
			c0.5,6.4,0.2,17.9,0.2,25.3c0,2.3,0.3,6.9-0.7,8.4c-1.8,0-0.5,0-1,0.3c-1.1-1-0.2,0.3-0.7-1c-0.2-0.5-0.2-0.7-0.3-1.1
			c-0.2-3.4,0.7-16.2,0-19.9l-5.6-0.7c0-0.2-0.2-0.2-0.2-0.3c-0.7-0.8,0.5,0.3-0.5-0.7c-3.3,0-10.3,0.5-13.1-0.3
			c0.7,5.6,1.5,22,3.8,26.1c0.7-1.6,15.9-0.8,18.2-0.8v33.8c-2.8,0-7.9-0.5-9.4,0.5c0.3,0.7,0,0.3,0.7,1.1c1,1.5,0,0.3,0.8,1.1v-1.1
			l7.2-0.2c0.7,1,0.5,1.3,0.8,2.1l1.5,0.2l-0.3-2.1h10.8c0,0.2,0,0.2,0.2,0.3l0.5,1.1c0.5,0.7-1.3,0.7,1.3,0.5
			c1.6-3.8-0.8-123.2,0.3-144.9c-15.1,0-30.8,0.5-45.9,0.2c-1,0-2.3-0.2-3.3,0c-1.6,0-1.5,0.3-2.3,1.1l-0.3-1.1L197.7,68.6z"/>
		<path class="st2" d="M107,225.9c0.7,1.8,22,0.8,24.8,0.8c3.8,0,35.8,0.7,37.7-0.7c2.5-1.5,1.6-7.5,1.6-11c0-7.9-0.7-18.9,0.2-26.3
			c-4.6,1.6-41.5-0.8-46.8,0.5c-0.3,1.5-0.5,28.4-0.2,33.6c0.2,2,0.5,2.1,1.1,3.4C121.4,226.4,110.1,227.1,107,225.9z"/>
		<path class="st5" d="M110.9,212.5v-23l7.7-0.2v23.1c-2-0.8-0.7-0.5-2.6-0.3l-3-0.2C112.2,212,111.6,211.7,110.9,212.5z M107,225.9
			c3.1,1.1,14.4,0.5,18.5,0.5c-0.7-1.3-1-1.5-1.1-3.4c-0.3-5.3-0.2-32.2,0.2-33.6c5.3-1.3,42.2,1.1,46.8-0.5
			c0.8-0.2,5.1-3.9,5.3-4.1c0.3-0.8,0,0.2,0.2-0.5c0,0,0-0.2,0-0.3c0,0,0-0.2-0.2-0.2l-23.5-0.2l-5.7-0.2c-0.8-1-1.6-2.5-3.6-2.8
			c-2.1-0.5-42.8-0.2-44.3-0.2c-0.5,2.1,3.8,6.1,4.9,7.9c1.5,2.1,0.7,21.8,0.7,25.9S104.2,225.3,107,225.9z"/>
		<path class="st2" d="M176.4,95.5c0.2,0.2,0,0.2,0.5,0.7s0.3,0.2,0.7,0.7c0.8,1,2.1,2.3,2.5,3.4c0.8,0.7,0.8,0.7,1.5,1.5l2.1-0.8
			c1.1-1.1,3.1-3.4,4.3-4.1c-0.2,3-1.6,4.6-3,7.9c-0.3,1-0.3,0.7-0.5,0.8c1,3.9,3.9,13.9,3.8,17.1l0.5-1.8l22.3-3l-1.6-9.2l-1-5.3
			c-0.3-1.3-1.8-9-0.3-9.8l4.4-3c0.8-1.1,0.7-0.5,1.3-1.5c-1.3-2-1.5-2.6-3.6-4.4l-3.6-2.5c-0.2-0.2-0.2-0.2-0.3-0.2l-1-1
			c-1.5,0-2.8-0.5-4.9-0.3c-6.6,0.2-16.1,1.5-20.5,6.2c-1.8,2.1-3.1,3.8-4.6,6.6L176.4,95.5z"/>
		<path class="st1" d="M208.6,81.2c0.2-0.3,1-0.3,1.1-2.5c0.2-0.5,0-2,0-2.6h6.4l0.2,4.9c6.2,2.1,6.6,1.5,6.4,7.2
			c0,4.1-0.3,10,0.2,13.9l13,0.2l0.2-33.8h-27.9C207.9,70.6,207.2,79.4,208.6,81.2z"/>
		<path class="st1" d="M220.2,186.4c0.5,0.8,0.8-1.3,0.5,1.5l5.7-0.2v19.4v1.3l0.2,0.2c1.5-1,6.6-0.5,9.4-0.5v-33.8
			c-2.3,0-17.6-0.8-18.2,0.8C217.4,177.1,219.2,184.4,220.2,186.4z"/>
		<path class="st1" d="M209.4,108.6l1.6,9.2l0.7,6.6l0.3,0.8c0,0,0.2,2,2.6,0.3c-0.2-1.3-0.2-0.7-0.8-1.5c-1-1.1,0-0.3-1.1-1
			l-0.2-6.9c1.5-1.8,2.1-2.6,5.3-2.6c4.1-0.2,3.1,2,5.4,3.3c1,0.3,4.9,0.5,5.7,3.1c0.7,3-0.8,3.9-1.6,4.6c-1,1-1,0.8-0.7,1.3
			c1.5,0.7,6.9,0,9.4,0v-22.2h-18.5C214.3,106.7,213.6,106.7,209.4,108.6z"/>
		<polygon class="st1" points="237.4,207.9 248.6,207.9 248.6,174.4 237.4,174.4 		"/>
		<polygon class="st1" points="237.4,102.1 248.6,102.1 248.6,68.6 237.6,68.6 		"/>
		<path class="st1" d="M237.3,139.1c0.7,3.6,0.2,12,0.2,16.4c0,5.7,0,11.3,0,17.1h11.2v-33.5H237.3z"/>
		<path class="st1" d="M237.1,137.3h11.5v-33.5h-11.2C237.4,110.8,238.3,132.4,237.1,137.3z"/>
		<path class="st1" d="M214,149c2.8,0.8,9.8,0.3,13.1,0.3c1,1-0.2-0.2,0.5,0.7c0,0.2,0.2,0.2,0.2,0.3l5.6,0.7
			c0.7,3.6-0.2,16.4,0,19.9c0.2,0.5,0.2,0.7,0.3,1.1c0.5,1.3-0.5,0,0.7,1c0.5-0.3-0.8-0.3,1-0.3c1-1.5,0.7-6.1,0.7-8.4
			c0-7.4,0.3-18.9-0.2-25.3l-21.3-0.2c-1.5-0.3-0.3-1.3-1.3-0.3C212.7,140.3,213.5,146.9,214,149z"/>
		<path class="st2" d="M110.9,212.5c0.7-0.8,1.3-0.5,2.1-0.5l3,0.2c2-0.2,0.7-0.5,2.6,0.3v-23.1l-7.7,0.2V212.5z"/>
		<path class="st4" d="M184.8,65.1l1.5,0.3v4.9c1.8-2.1,0.2-3.3,3.1-3c2,2.3,0.2,3.4,0.7,4.9c0,0.5,2.3,3,2.8,3.6
			c1.8,0,3.1-0.7,4.6-1.1l0.3-6.2l0.8-1.6c-0.2-3.3-0.8-4.3-3-5.7c-2.3-1.6-0.3-2.5-7.2-1.5c-2.6,0.3-3.8,0-5.6-0.5
			c-1.3,1.8,0.2,1.1-0.8,2.5l-1.1,1c1,0.3,0.3,0,1.1,0.5c0,0,0.3,0.2,0.5,0.3c0,0,0.2,0,0.2,0.2c0.2,0,0.2,0,0.3,0.2L184.8,65.1z"/>
		<path class="st6" d="M154.1,102.1c-0.5,0.7-0.2,0.3-0.7,0.8c0,0-0.5,0.5-0.7,0.5c1,5.4,3.3,3.3,7.4,3.8c1.6,0.2,3.6,1.1,5.9,1.3
			c2.3,0.3,4.6,0.3,6.4-0.7c2-1,6.6-5.6,7.5-7.5c-0.3-1.1-1.6-2.5-2.5-3.4c-0.3-0.5-0.2-0.2-0.7-0.7s-0.3-0.5-0.5-0.7
			c-2.6,1.8-5.4,7.1-8.2,7.7C164.7,103.9,157.9,102.7,154.1,102.1z"/>
		<path class="st6" d="M208.1,93.5c0.5,2.6,3.3,4.3,4.1,7.1c-1.5,1.5-2,1.5-3.8,2.8l1,5.3c4.3-2,4.9-2,8-4.9c1.1-2.8,1-4.8-0.3-7.5
			c-0.5-1.3-1.1-2.1-1.8-3.1c-1.1-1.8-0.7-2.1-2.8-2.5L208.1,93.5z"/>
		<path class="st6" d="M197.4,74.8c-1.5,0.5-2.8,1.1-4.6,1.1c-0.5-0.7-2.8-3.1-2.8-3.6c-0.5-1.5,1.3-2.6-0.7-4.9
			c-3-0.3-1.3,0.8-3.1,3v-4.9l-1.5-0.3c-0.2,3.1-0.7-0.3-0.3,3.6l0.2,2.3c0.2,1.5-0.2,1,0,2.5c1.5,1.1,0.3-0.3,1.6,1
			c0.5,0.5,0.5,1,1.1,1.6c1.1,1.1,2.6,1.5,4.6,1.6l0.2,2.1l5.7-0.8C197.7,77.3,197.1,76.3,197.4,74.8z"/>
		<path class="st5" d="M226.4,207.1v-19.4l-5.7,0.2c0.3-2.8,0-0.7-0.5-1.5C220.4,187.9,225,205.1,226.4,207.1z"/>
		<path class="st4" d="M191.8,225.5c-1.5,0.7-5.7,1.1-6.7,2.5c0.7,1.3,1,1.3,3,1.3l12.3-0.5l-0.7-4.1c-1.5-0.5-3.1-0.5-4.6-0.3
			C193.1,224.3,193.1,224.5,191.8,225.5z"/>
		<path class="st4" d="M224.3,218.2l-0.5,0.2c-1.1,1-0.5,0.3-1.1,1.3c-1.1,2.3-3.8,2-4.6,3.9c2.5,2.3,6.6-1.3,13-2.1
			c-0.3-1.8-1.1-3.1-2-4.4C227.3,217.1,226.1,217.6,224.3,218.2z"/>
		<path class="st6" d="M191.8,225.5c1.3-1,1.3-1.1,3.3-1.1c1.5-0.2,3.1-0.2,4.6,0.3c-0.2-0.2-0.3-0.3-0.3-0.3s-0.2-0.2-0.2-0.3
			c-0.2-0.2-0.7,1.3-0.7-3.1c0-2.6-0.2-1.3,2-2h-8.9l2.5,0.3l0.2,4.1c-1.5,1,1.1-0.3-1.6-0.3c-0.7,1.3,0.5,0.2-1.3,1.1L191.8,225.5z
			"/>
		<path class="st2" d="M219.1,210.5c-0.7,1.3-0.2,2,0.7,3.4l2.6-0.3c0.8-0.8,0.2-0.3,1.6-0.8c1-0.3,1.3-0.5,2.5-0.7
			c1.8-0.8,0.7,0.2,1.6-1.3c-0.8-0.8,0.2,0.3-0.8-1.1c-0.7-0.8-0.3-0.5-0.7-1.1l-0.2-0.2c-0.8,1.3-0.2,0.8-2,1.3
			c-0.7,0.2-1.1,0.2-1.8,0.3C221.2,210.5,220,211,219.1,210.5z"/>
		<polygon class="st2" points="191.7,218.9 200.5,218.9 200.5,216.8 199.7,216.3 192.1,215.9 191.3,216.3 		"/>
		<path class="st7" d="M208.4,103.4c1.8-1.3,2.3-1.3,3.8-2.8c-0.8-2.8-3.6-4.4-4.1-7.1C206.6,94.4,208.1,102.1,208.4,103.4z"/>
		<path class="st5" d="M208.1,181.8c-0.2-2-1-4.8-2.1-6.1l0.3,11c0.3,1.1-0.2,0.5,0.7,1c0.8-0.3,1.1,0.3,1-3
			C207.9,183.8,207.7,182.5,208.1,181.8z"/>
		<path class="st6" d="M222.8,214.8c0.5,1.1,1.1,2.1,1.5,3.4c1.8-0.7,3-1.1,4.8-1.1c-2-2-1.1-2-2.3-3.9c-0.7,0.8-0.7,0.7-1.8,1
			c-0.3,0.2-0.7,0.3-1,0.3C223.2,214.8,224.3,214.5,222.8,214.8z"/>
		<path class="st2" d="M183.6,100.9l0.8,4.6c0.2-0.2,0.2,0.2,0.5-0.8c1.3-3.3,2.8-4.9,3-7.9C186.7,97.5,184.8,99.8,183.6,100.9z"/>
		<path class="st8" d="M222.3,213.6l0.5,1.1c1.5-0.3,0.3,0,1.1-0.3c0.3,0,0.7-0.2,1-0.3c1.1-0.3,1.1-0.2,1.8-1l-0.3-1
			c-1.1,0.2-1.5,0.3-2.5,0.7C222.5,213.3,223.2,212.8,222.3,213.6z"/>
		<path class="st5" d="M206.3,211.8h1.6c0-2.8,0.7-2.1-1.6-2.3V211.8z"/>
		<path class="st5" d="M222.7,219.7c0.7-1,0-0.3,1.1-1.3c-1-1.3,0-0.3-1.3-1.1c-0.3,0.5-0.8,1.6-1,2.1L222.7,219.7z"/>
		<path class="st9" d="M122.2,139.1c0,0-18.9,16.7-8.5,35.6"/>
		<path class="st9" d="M127.5,142.1c0,0-19,16.6-8.7,35.4"/>
	</g>
</g>
</svg>
